<svg width="284" height="45" viewBox="0 0 284 45" fill="none" xmlns="http://www.w3.org/2000/svg">
<path d="M59.6364 43.5C56.3068 43.5 53.7996 42.5677 52.1147 40.7031C50.4298 38.7989 49.5874 36.0219 49.5874 32.3721V4.22503C49.5874 2.99521 49.9083 2.06293 50.5502 1.42818C51.192 0.793432 52.1147 0.476058 53.3182 0.476058C54.5217 0.476058 55.4443 0.793432 56.0862 1.42818C56.7682 2.06293 57.1091 2.99521 57.1091 4.22503V32.015C57.1091 33.8399 57.4902 35.1888 58.2524 36.0616C59.0548 36.9343 60.178 37.3707 61.6222 37.3707C61.9431 37.3707 62.244 37.3707 62.5248 37.3707C62.8056 37.3311 63.0864 37.2914 63.3672 37.2517C63.9289 37.1724 64.31 37.3311 64.5105 37.7278C64.7111 38.0848 64.8114 38.8386 64.8114 39.9891C64.8114 40.9808 64.6108 41.7544 64.2097 42.3098C63.8085 42.8653 63.1466 43.2025 62.2239 43.3215C61.8228 43.3611 61.4016 43.4008 60.9603 43.4405C60.519 43.4802 60.0777 43.5 59.6364 43.5Z" fill="#4365BD"/>
<path d="M72.5339 43.381C71.3304 43.381 70.4077 43.0636 69.7659 42.4289C69.124 41.7544 68.8031 40.8023 68.8031 39.5725V4.22503C68.8031 2.99521 69.124 2.06293 69.7659 1.42818C70.4077 0.793432 71.3304 0.476058 72.5339 0.476058C73.7374 0.476058 74.66 0.793432 75.3019 1.42818C75.9839 2.06293 76.3248 2.99521 76.3248 4.22503V19.6375H75.4824C76.365 17.5349 77.7289 15.948 79.5742 14.8769C81.4597 13.7661 83.5858 13.2107 85.9527 13.2107C88.3195 13.2107 90.2651 13.6471 91.7895 14.5198C93.3139 15.3926 94.4572 16.7216 95.2195 18.5068C95.9817 20.2524 96.3628 22.474 96.3628 25.1717V39.5725C96.3628 40.8023 96.0418 41.7544 95.4 42.4289C94.7581 43.0636 93.8355 43.381 92.632 43.381C91.4285 43.381 90.4858 43.0636 89.8038 42.4289C89.1619 41.7544 88.841 40.8023 88.841 39.5725V25.5287C88.841 23.2674 88.3997 21.6211 87.5172 20.5896C86.6748 19.5581 85.3509 19.0424 83.5457 19.0424C81.3393 19.0424 79.5742 19.7367 78.2504 21.1252C76.9667 22.474 76.3248 24.2791 76.3248 26.5404V39.5725C76.3248 42.1115 75.0612 43.381 72.5339 43.381Z" fill="#4365BD"/>
<path d="M113.69 43.5C111.564 43.5 109.659 43.1033 107.974 42.3098C106.329 41.4767 105.025 40.3659 104.063 38.9774C103.14 37.5889 102.679 36.0219 102.679 34.2763C102.679 32.1341 103.24 30.448 104.364 29.2182C105.487 27.9487 107.312 27.0363 109.839 26.4808C112.367 25.9254 115.756 25.6477 120.009 25.6477H123.017V29.9323H120.069C117.582 29.9323 115.596 30.0513 114.112 30.2893C112.627 30.5274 111.564 30.9439 110.922 31.539C110.321 32.0944 110.02 32.8878 110.02 33.9193C110.02 35.2285 110.481 36.2996 111.404 37.1327C112.327 37.9658 113.61 38.3824 115.255 38.3824C116.579 38.3824 117.742 38.0848 118.745 37.4897C119.788 36.855 120.61 36.0021 121.212 34.9309C121.814 33.8598 122.115 32.63 122.115 31.2414V24.3981C122.115 22.4145 121.674 20.9863 120.791 20.1135C119.908 19.2408 118.424 18.8044 116.338 18.8044C115.175 18.8044 113.911 18.9432 112.547 19.2209C111.223 19.4986 109.819 19.9747 108.335 20.6491C107.573 21.0062 106.891 21.1053 106.289 20.9466C105.727 20.788 105.286 20.4706 104.965 19.9945C104.644 19.4788 104.484 18.9234 104.484 18.3283C104.484 17.7332 104.644 17.158 104.965 16.6026C105.286 16.0075 105.828 15.5711 106.59 15.2934C108.435 14.5397 110.2 14.0041 111.885 13.6867C113.61 13.3694 115.175 13.2107 116.579 13.2107C119.467 13.2107 121.834 13.6471 123.679 14.5198C125.565 15.3926 126.969 16.7216 127.892 18.5068C128.814 20.2524 129.276 22.5137 129.276 25.2907V39.5725C129.276 40.8023 128.975 41.7544 128.373 42.4289C127.771 43.0636 126.909 43.381 125.785 43.381C124.662 43.381 123.78 43.0636 123.138 42.4289C122.536 41.7544 122.235 40.8023 122.235 39.5725V36.7161H122.717C122.436 38.1046 121.874 39.3146 121.032 40.3461C120.229 41.3379 119.206 42.1115 117.963 42.6669C116.719 43.2223 115.295 43.5 113.69 43.5Z" fill="#4365BD"/>
<path d="M148.223 43.5C145.655 43.5 143.389 42.8851 141.423 41.6553C139.498 40.4254 137.993 38.6799 136.91 36.4186C135.827 34.1176 135.285 31.42 135.285 28.3256C135.285 25.1915 135.827 22.5137 136.91 20.2921C137.993 18.0308 139.498 16.2852 141.423 15.0554C143.389 13.8256 145.655 13.2107 148.223 13.2107C150.67 13.2107 152.796 13.8057 154.601 14.9959C156.447 16.186 157.69 17.7531 158.332 19.697H157.67V4.22503C157.67 2.99521 157.991 2.06293 158.633 1.42818C159.275 0.793432 160.197 0.476058 161.401 0.476058C162.604 0.476058 163.527 0.793432 164.169 1.42818C164.851 2.06293 165.192 2.99521 165.192 4.22503V39.5725C165.192 40.8023 164.871 41.7544 164.229 42.4289C163.587 43.0636 162.665 43.381 161.461 43.381C160.258 43.381 159.335 43.0636 158.693 42.4289C158.051 41.7544 157.73 40.8023 157.73 39.5725V34.9309L158.392 36.7161C157.79 38.7791 156.567 40.4254 154.722 41.6553C152.876 42.8851 150.71 43.5 148.223 43.5ZM150.329 37.8468C151.813 37.8468 153.117 37.4897 154.24 36.7757C155.363 36.0616 156.226 35.0103 156.828 33.6218C157.47 32.1936 157.79 30.4282 157.79 28.3256C157.79 25.1518 157.108 22.7914 155.745 21.2442C154.381 19.6573 152.575 18.8639 150.329 18.8639C148.845 18.8639 147.541 19.2209 146.418 19.935C145.294 20.6094 144.412 21.6607 143.77 23.0889C143.168 24.4774 142.867 26.223 142.867 28.3256C142.867 31.4596 143.549 33.8399 144.913 35.4665C146.277 37.0534 148.082 37.8468 150.329 37.8468Z" fill="#4365BD"/>
<path d="M176.722 43.3215C175.518 43.3215 174.596 42.9644 173.954 42.2503C173.312 41.5363 172.991 40.5445 172.991 39.275V17.4357C172.991 16.1265 173.312 15.1347 173.954 14.4603C174.596 13.7462 175.518 13.3892 176.722 13.3892C177.925 13.3892 178.848 13.7462 179.49 14.4603C180.172 15.1347 180.513 16.1265 180.513 17.4357V39.275C180.513 40.5445 180.192 41.5363 179.55 42.2503C178.908 42.9644 177.965 43.3215 176.722 43.3215ZM176.722 7.85499C175.318 7.85499 174.214 7.51778 173.412 6.84336C172.65 6.12927 172.269 5.15732 172.269 3.92749C172.269 2.658 172.65 1.68604 173.412 1.01163C174.214 0.337208 175.318 0 176.722 0C178.166 0 179.269 0.337208 180.031 1.01163C180.794 1.68604 181.175 2.658 181.175 3.92749C181.175 5.15732 180.794 6.12927 180.031 6.84336C179.269 7.51778 178.166 7.85499 176.722 7.85499Z" fill="#4365BD"/>
<path d="M192.059 43.381C190.856 43.381 189.933 43.0636 189.291 42.4289C188.649 41.7544 188.328 40.8023 188.328 39.5725V17.0787C188.328 15.8488 188.649 14.9166 189.291 14.2818C189.933 13.6471 190.835 13.3297 191.999 13.3297C193.162 13.3297 194.065 13.6471 194.707 14.2818C195.349 14.9166 195.669 15.8488 195.669 17.0787V21.1252L195.008 19.6375C195.89 17.5349 197.254 15.948 199.099 14.8769C200.985 13.7661 203.111 13.2107 205.478 13.2107C207.845 13.2107 209.79 13.6471 211.315 14.5198C212.839 15.3926 213.982 16.7216 214.745 18.5068C215.507 20.2524 215.888 22.474 215.888 25.1717V39.5725C215.888 40.8023 215.567 41.7544 214.925 42.4289C214.283 43.0636 213.361 43.381 212.157 43.381C210.954 43.381 210.011 43.0636 209.329 42.4289C208.687 41.7544 208.366 40.8023 208.366 39.5725V25.5287C208.366 23.2674 207.925 21.6211 207.042 20.5896C206.2 19.5581 204.876 19.0424 203.071 19.0424C200.864 19.0424 199.099 19.7367 197.776 21.1252C196.492 22.474 195.85 24.2791 195.85 26.5404V39.5725C195.85 42.1115 194.586 43.381 192.059 43.381Z" fill="#4365BD"/>
<path d="M227.258 43.381C226.055 43.381 225.132 43.0636 224.49 42.4289C223.849 41.7544 223.528 40.8023 223.528 39.5725V4.22503C223.528 2.99521 223.849 2.06293 224.49 1.42818C225.132 0.793432 226.055 0.476058 227.258 0.476058C228.462 0.476058 229.385 0.793432 230.026 1.42818C230.708 2.06293 231.049 2.99521 231.049 4.22503V19.6375H230.207C231.09 17.5349 232.453 15.948 234.299 14.8769C236.184 13.7661 238.31 13.2107 240.677 13.2107C243.044 13.2107 244.99 13.6471 246.514 14.5198C248.038 15.3926 249.182 16.7216 249.944 18.5068C250.706 20.2524 251.087 22.474 251.087 25.1717V39.5725C251.087 40.8023 250.766 41.7544 250.125 42.4289C249.483 43.0636 248.56 43.381 247.357 43.381C246.153 43.381 245.21 43.0636 244.528 42.4289C243.887 41.7544 243.566 40.8023 243.566 39.5725V25.5287C243.566 23.2674 243.124 21.6211 242.242 20.5896C241.399 19.5581 240.075 19.0424 238.27 19.0424C236.064 19.0424 234.299 19.7367 232.975 21.1252C231.691 22.474 231.049 24.2791 231.049 26.5404V39.5725C231.049 42.1115 229.786 43.381 227.258 43.381Z" fill="#4365BD"/>
<path d="M268.415 43.5C266.289 43.5 264.383 43.1033 262.699 42.3098C261.054 41.4767 259.75 40.3659 258.787 38.9774C257.865 37.5889 257.403 36.0219 257.403 34.2763C257.403 32.1341 257.965 30.448 259.088 29.2182C260.211 27.9487 262.037 27.0363 264.564 26.4808C267.091 25.9254 270.481 25.6477 274.733 25.6477H277.742V29.9323H274.793C272.306 29.9323 270.321 30.0513 268.836 30.2893C267.352 30.5274 266.289 30.9439 265.647 31.539C265.045 32.0944 264.744 32.8878 264.744 33.9193C264.744 35.2285 265.206 36.2996 266.128 37.1327C267.051 37.9658 268.335 38.3824 269.98 38.3824C271.303 38.3824 272.467 38.0848 273.47 37.4897C274.513 36.855 275.335 36.0021 275.937 34.9309C276.539 33.8598 276.839 32.63 276.839 31.2414V24.3981C276.839 22.4145 276.398 20.9863 275.516 20.1135C274.633 19.2408 273.149 18.8044 271.063 18.8044C269.899 18.8044 268.636 18.9432 267.272 19.2209C265.948 19.4986 264.544 19.9747 263.06 20.6491C262.297 21.0062 261.615 21.1053 261.014 20.9466C260.452 20.788 260.011 20.4706 259.69 19.9945C259.369 19.4788 259.208 18.9234 259.208 18.3283C259.208 17.7332 259.369 17.158 259.69 16.6026C260.011 16.0075 260.552 15.5711 261.315 15.2934C263.16 14.5397 264.925 14.0041 266.61 13.6867C268.335 13.3694 269.899 13.2107 271.303 13.2107C274.192 13.2107 276.559 13.6471 278.404 14.5198C280.289 15.3926 281.693 16.7216 282.616 18.5068C283.539 20.2524 284 22.5137 284 25.2907V39.5725C284 40.8023 283.699 41.7544 283.097 42.4289C282.496 43.0636 281.633 43.381 280.51 43.381C279.387 43.381 278.504 43.0636 277.862 42.4289C277.261 41.7544 276.96 40.8023 276.96 39.5725V36.7161H277.441C277.16 38.1046 276.599 39.3146 275.756 40.3461C274.954 41.3379 273.931 42.1115 272.687 42.6669C271.444 43.2223 270.02 43.5 268.415 43.5Z" fill="#4365BD"/>
<path fill-rule="evenodd" clip-rule="evenodd" d="M21.7884 38.7857C30.3836 38.7857 37.3515 31.8301 37.3515 23.25C37.3515 14.6699 30.3836 7.71429 21.7884 7.71429C13.1931 7.71429 6.22525 14.6699 6.22525 23.25C6.22525 31.8301 13.1931 38.7857 21.7884 38.7857ZM21.7884 45C33.8217 45 43.5767 35.2622 43.5767 23.25C43.5767 11.2378 33.8217 1.5 21.7884 1.5C9.75498 1.5 0 11.2378 0 23.25C0 35.2622 9.75498 45 21.7884 45Z" fill="#4365BD"/>
<path fill-rule="evenodd" clip-rule="evenodd" d="M22.5398 25.5C25.1243 25.5 26.4842 23.798 26.4842 22.5C26.4842 21.202 25.1243 19.5 22.5398 19.5C19.9552 19.5 18.5953 21.202 18.5953 22.5C18.5953 23.798 19.9552 25.5 22.5398 25.5ZM22.5398 31.5C28.349 31.5 33.0583 27.4706 33.0583 22.5C33.0583 17.5294 28.349 13.5 22.5398 13.5C16.7305 13.5 12.0212 17.5294 12.0212 22.5C12.0212 27.4706 16.7305 31.5 22.5398 31.5Z" fill="#4365BD"/>
</svg>
