<svg width="16" height="15" viewBox="0 0 16 15" fill="none" xmlns="http://www.w3.org/2000/svg">
<path d="M14.2222 2.34375C14.4667 2.34375 14.6667 2.55469 14.6667 2.8125V12.1875C14.6667 12.4453 14.4667 12.6562 14.2222 12.6562H1.77778C1.53333 12.6562 1.33333 12.4453 1.33333 12.1875V2.8125C1.33333 2.55469 1.53333 2.34375 1.77778 2.34375H14.2222ZM1.77778 0.9375C0.797222 0.9375 0 1.77832 0 2.8125V12.1875C0 13.2217 0.797222 14.0625 1.77778 14.0625H14.2222C15.2028 14.0625 16 13.2217 16 12.1875V2.8125C16 1.77832 15.2028 0.9375 14.2222 0.9375H1.77778ZM5.77778 7.5C6.24927 7.5 6.70146 7.30246 7.03486 6.95083C7.36825 6.59919 7.55556 6.12228 7.55556 5.625C7.55556 5.12772 7.36825 4.65081 7.03486 4.29917C6.70146 3.94754 6.24927 3.75 5.77778 3.75C5.30628 3.75 4.8541 3.94754 4.5207 4.29917C4.1873 4.65081 4 5.12772 4 5.625C4 6.12228 4.1873 6.59919 4.5207 6.95083C4.8541 7.30246 5.30628 7.5 5.77778 7.5ZM4.88889 8.4375C3.66111 8.4375 2.66667 9.48633 2.66667 10.7812C2.66667 11.0391 2.86667 11.25 3.11111 11.25H8.44444C8.68889 11.25 8.88889 11.0391 8.88889 10.7812C8.88889 9.48633 7.89444 8.4375 6.66667 8.4375H4.88889ZM10.4444 4.21875C10.075 4.21875 9.77778 4.53223 9.77778 4.92188C9.77778 5.31152 10.075 5.625 10.4444 5.625H12.6667C13.0361 5.625 13.3333 5.31152 13.3333 4.92188C13.3333 4.53223 13.0361 4.21875 12.6667 4.21875H10.4444ZM10.4444 7.03125C10.075 7.03125 9.77778 7.34473 9.77778 7.73438C9.77778 8.12402 10.075 8.4375 10.4444 8.4375H12.6667C13.0361 8.4375 13.3333 8.12402 13.3333 7.73438C13.3333 7.34473 13.0361 7.03125 12.6667 7.03125H10.4444Z" fill="black"/>
</svg>
