<svg width="152" height="32" fill="none" xmlns="http://www.w3.org/2000/svg">
<path d="M83.504 25.844c-2.263 0-4.005-.494-5.225-1.48-1.22-.988-1.842-2.313-1.864-3.977h2.33c.044.843.427 1.609 1.148 2.296.721.688 1.925 1.032 3.611 1.032 1.576 0 2.757-.328 3.545-.982.787-.654 1.181-1.448 1.181-2.38 0-.865-.327-1.535-.981-2.013-.655-.476-1.604-.782-2.846-.915l-1.997-.2c-1.598-.177-2.89-.67-3.878-1.48-.987-.81-1.48-1.924-1.48-3.344 0-1.043.266-1.952.798-2.729.533-.776 1.282-1.38 2.247-1.813.965-.433 2.102-.65 3.411-.65 1.886 0 3.423.445 4.61 1.332 1.187.887 1.792 2.152 1.814 3.793h-2.33c-.022-.842-.377-1.552-1.065-2.13-.688-.576-1.697-.864-3.029-.864-1.376 0-2.402.299-3.078.898-.677.599-1.016 1.33-1.016 2.196 0 .732.255 1.337.766 1.814.51.477 1.309.77 2.397.881l1.997.2c1.774.2 3.222.71 4.343 1.53 1.12.822 1.68 1.997 1.68 3.528 0 1.043-.294 1.98-.881 2.812-.589.832-1.415 1.48-2.48 1.946-1.065.466-2.308.7-3.728.7ZM94.222 25.345V1.054h2.496v13.742l-.732.566c0-1.641.238-3.072.715-4.292.477-1.22 1.199-2.168 2.164-2.845.965-.677 2.18-1.015 3.644-1.015h.133c2.13 0 3.745.698 4.843 2.096 1.098 1.398 1.648 3.339 1.648 5.823v10.216h-2.463V14.597c0-1.575-.433-2.817-1.298-3.727-.866-.91-2.031-1.364-3.495-1.364-1.576 0-2.83.505-3.761 1.514-.932 1.01-1.398 2.335-1.398 3.976v10.349h-2.496ZM121.913 23.681c1.464 0 2.701-.327 3.711-.982a6.444 6.444 0 0 0 2.313-2.595c.533-1.076.799-2.268.799-3.577 0-1.331-.272-2.534-.816-3.61a6.299 6.299 0 0 0-2.346-2.563c-1.021-.632-2.242-.948-3.661-.948-1.398 0-2.608.316-3.628.948a6.292 6.292 0 0 0-2.346 2.563c-.544 1.076-.816 2.279-.816 3.61 0 1.31.266 2.501.799 3.577a6.437 6.437 0 0 0 2.313 2.596c1.01.654 2.235.981 3.678.981Zm0 2.23c-1.509 0-2.835-.261-3.977-.782-1.144-.521-2.109-1.22-2.896-2.097a9.25 9.25 0 0 1-1.797-2.945 9.335 9.335 0 0 1-.616-3.327v-.466c0-1.131.21-2.246.632-3.344a9.11 9.11 0 0 1 1.831-2.945c.799-.865 1.769-1.558 2.912-2.08 1.143-.52 2.446-.782 3.911-.782 1.486 0 2.801.261 3.944.782 1.142.522 2.113 1.215 2.912 2.08a8.896 8.896 0 0 1 1.814 2.945 9.495 9.495 0 0 1 .616 3.344v.466c0 1.131-.2 2.24-.599 3.327a9.047 9.047 0 0 1-1.781 2.945c-.788.877-1.759 1.576-2.912 2.097-1.154.52-2.485.781-3.994.781ZM143.113 23.714c1.331 0 2.474-.316 3.428-.948.954-.632 1.686-1.497 2.197-2.595.51-1.098.765-2.313.765-3.644 0-1.375-.261-2.6-.782-3.677-.521-1.076-1.259-1.93-2.213-2.562-.954-.633-2.086-.949-3.395-.949-1.198 0-2.286.267-3.262.8a5.924 5.924 0 0 0-2.313 2.245c-.566.965-.849 2.102-.849 3.41v1.631c0 1.243.283 2.335.849 3.278a5.995 5.995 0 0 0 2.313 2.213c.976.532 2.064.798 3.262.798ZM134.293 32V7.742h1.997v7.554l-.599.066c.088-1.774.471-3.272 1.148-4.492.677-1.22 1.598-2.146 2.763-2.778 1.165-.633 2.468-.949 3.91-.949 1.287 0 2.458.25 3.512.749a8.18 8.18 0 0 1 2.696 2.03 8.971 8.971 0 0 1 1.697 2.928c.388 1.098.583 2.246.583 3.444v.466c0 1.198-.2 2.346-.599 3.444a9.227 9.227 0 0 1-1.714 2.928 8.169 8.169 0 0 1-2.697 2.03c-1.054.5-2.235.748-3.544.748-1.398 0-2.679-.316-3.844-.948-1.165-.632-2.109-1.569-2.829-2.812-.722-1.242-1.115-2.772-1.182-4.592l1.198 2.496V32h-2.496ZM5.546 0h-.921c-1.13 0-2.05.823-2.05 2.022v1.13c0 1.2.92 2.022 2.05 2.022h.92c1.165 0 2.051-.823 2.051-2.022v-1.13C7.596.816 6.703 0 5.546 0ZM20.98 7.217c-2.873 0-4.687 1.506-5.58 3.18l-.14-2.74h-4.275v17.656h4.45v-9.784c0-2.943 1.577-4.65 3.934-4.65 2.358 0 3.32 1.505 3.32 4.211v10.23h4.415V13.96c0-3.974-1.743-6.743-6.124-6.743ZM0 11.29h2.943v14.03h4.45V7.663H0v3.627ZM45.693 14.505c.411-2.567 1.848-3.836 4.31-3.836 2.497 0 3.801 1.437 4.038 3.836h-8.348Zm4.345-7.288c-5.545 0-9.005 3.661-9.005 9.03v.447c0 5.44 3.39 9.065 9.005 9.065 4.554 0 7.596-2.329 8.453-6.024h-4.415c-.516 1.506-1.778 2.566-4.038 2.566-2.671 0-4.213-1.611-4.45-4.756h13.008c.307-6.116-2.636-10.328-8.558-10.328ZM34.666 19.909v-8.62h4.652V7.665h-4.652v-5.99h-4.45v18.681c0 3.557 1.953 5.404 6.061 5.404 1.025 0 2.295-.174 3.118-.446v-3.459a6.648 6.648 0 0 1-2.12.377c-1.954.007-2.61-.711-2.61-2.322ZM71.054 7.357c-2.567 0-4.38 1.506-5.238 3.73l-.105-3.424h-4.276V25.32h4.45V16.56c0-3.389 1.542-5.271 4.932-5.271.446 0 .955.035 1.27.07V7.46c-.28-.07-.726-.104-1.033-.104Z" fill="#FF9900"></path>
</svg>