<svg width="189" height="30" viewBox="0 0 189 30" fill="none" xmlns="http://www.w3.org/2000/svg">
<path d="M39.6876 29C37.4717 29 35.8032 28.3785 34.6819 27.1354C33.5606 25.8659 33 24.0146 33 21.5814V2.81669C33 1.99681 33.2136 1.37528 33.6407 0.95212C34.0679 0.528954 34.6819 0.317372 35.4828 0.317372C36.2837 0.317372 36.8977 0.528954 37.3249 0.95212C37.7787 1.37528 38.0057 1.99681 38.0057 2.81669V21.3434C38.0057 22.56 38.2593 23.4592 38.7665 24.041C39.3005 24.6229 40.048 24.9138 41.0091 24.9138C41.2226 24.9138 41.4229 24.9138 41.6097 24.9138C41.7966 24.8874 41.9835 24.8609 42.1704 24.8345C42.5441 24.7816 42.7978 24.8874 42.9312 25.1518C43.0647 25.3899 43.1315 25.8924 43.1315 26.6594C43.1315 27.3206 42.998 27.8363 42.731 28.2066C42.464 28.5768 42.0235 28.8016 41.4095 28.881C41.1425 28.9074 40.8622 28.9339 40.5686 28.9603C40.2749 28.9868 39.9812 29 39.6876 29Z" fill="#363636"/>
<path d="M48.2707 28.9207C47.4698 28.9207 46.8558 28.7091 46.4286 28.2859C46.0015 27.8363 45.7879 27.2016 45.7879 26.3817V2.81669C45.7879 1.99681 46.0015 1.37528 46.4286 0.95212C46.8558 0.528954 47.4698 0.317372 48.2707 0.317372C49.0716 0.317372 49.6857 0.528954 50.1128 0.95212C50.5667 1.37528 50.7936 1.99681 50.7936 2.81669V13.0917H50.2329C50.8203 11.6899 51.728 10.632 52.956 9.91792C54.2108 9.17738 55.6257 8.80711 57.2008 8.80711C58.7759 8.80711 60.0707 9.09804 61.0852 9.67989C62.0997 10.2617 62.8606 11.1477 63.3678 12.3379C63.875 13.5016 64.1287 14.9827 64.1287 16.7811V26.3817C64.1287 27.2016 63.9151 27.8363 63.4879 28.2859C63.0608 28.7091 62.4468 28.9207 61.6459 28.9207C60.845 28.9207 60.2176 28.7091 59.7637 28.2859C59.3366 27.8363 59.123 27.2016 59.123 26.3817V17.0192C59.123 15.5116 58.8293 14.414 58.242 13.7264C57.6814 13.0388 56.8004 12.6949 55.599 12.6949C54.1307 12.6949 52.956 13.1578 52.075 14.0834C51.2207 14.9827 50.7936 16.186 50.7936 17.6936V26.3817C50.7936 28.0743 49.9526 28.9207 48.2707 28.9207Z" fill="#363636"/>
<path d="M75.6602 29C74.2452 29 72.9771 28.7355 71.8559 28.2066C70.7613 27.6512 69.8936 26.9106 69.2529 25.985C68.6389 25.0593 68.3319 24.0146 68.3319 22.8509C68.3319 21.4227 68.7056 20.2987 69.4531 19.4788C70.2006 18.6325 71.4154 18.0242 73.0973 17.6539C74.7792 17.2836 77.035 17.0985 79.8649 17.0985H81.8672V19.9549H79.905C78.2498 19.9549 76.9283 20.0342 75.9405 20.1929C74.9527 20.3516 74.2452 20.6293 73.8181 21.026C73.4176 21.3963 73.2174 21.9252 73.2174 22.6129C73.2174 23.4856 73.5244 24.1997 74.1384 24.7551C74.7525 25.3105 75.6068 25.5882 76.7013 25.5882C77.5823 25.5882 78.3565 25.3899 79.024 24.9932C79.7181 24.57 80.2654 24.0014 80.6658 23.2873C81.0663 22.5732 81.2665 21.7533 81.2665 20.8276V16.2654C81.2665 14.943 80.9728 13.9909 80.3855 13.409C79.7982 12.8272 78.8104 12.5363 77.4222 12.5363C76.6479 12.5363 75.807 12.6288 74.8993 12.814C74.0183 12.9991 73.0839 13.3165 72.0961 13.7661C71.5889 14.0041 71.135 14.0702 70.7346 13.9644C70.3608 13.8586 70.0672 13.6471 69.8536 13.3297C69.64 12.9859 69.5332 12.6156 69.5332 12.2189C69.5332 11.8222 69.64 11.4387 69.8536 11.0684C70.0672 10.6717 70.4276 10.3808 70.9348 10.1956C72.1629 9.69311 73.3375 9.33607 74.4588 9.12449C75.6068 8.9129 76.6479 8.80711 77.5823 8.80711C79.5045 8.80711 81.0796 9.09804 82.3077 9.67989C83.5624 10.2617 84.4968 11.1477 85.1109 12.3379C85.7249 13.5016 86.0319 15.0091 86.0319 16.8605V26.3817C86.0319 27.2016 85.8317 27.8363 85.4312 28.2859C85.0308 28.7091 84.4568 28.9207 83.7093 28.9207C82.9618 28.9207 82.3744 28.7091 81.9473 28.2859C81.5468 27.8363 81.3466 27.2016 81.3466 26.3817V24.4774H81.667C81.4801 25.4031 81.1063 26.2098 80.5457 26.8974C80.0118 27.5586 79.331 28.0743 78.5034 28.4446C77.6758 28.8149 76.728 29 75.6602 29Z" fill="#363636"/>
<path d="M98.6412 29C96.9326 29 95.4242 28.5901 94.116 27.7702C92.8346 26.9503 91.8335 25.7866 91.1126 24.2791C90.3918 22.7451 90.0314 20.9466 90.0314 18.8837C90.0314 16.7943 90.3918 15.0091 91.1126 13.528C91.8335 12.0205 92.8346 10.8568 94.116 10.0369C95.4242 9.21705 96.9326 8.80711 98.6412 8.80711C100.27 8.80711 101.685 9.20383 102.886 9.99726C104.114 10.7907 104.942 11.8354 105.369 13.1313H104.928V2.81669C104.928 1.99681 105.142 1.37528 105.569 0.95212C105.996 0.528954 106.61 0.317372 107.411 0.317372C108.212 0.317372 108.826 0.528954 109.253 0.95212C109.707 1.37528 109.934 1.99681 109.934 2.81669V26.3817C109.934 27.2016 109.72 27.8363 109.293 28.2859C108.866 28.7091 108.252 28.9207 107.451 28.9207C106.65 28.9207 106.036 28.7091 105.609 28.2859C105.182 27.8363 104.968 27.2016 104.968 26.3817V23.2873L105.409 24.4774C105.008 25.8527 104.194 26.9503 102.966 27.7702C101.738 28.5901 100.296 29 98.6412 29ZM100.043 25.2312C101.031 25.2312 101.898 24.9932 102.646 24.5171C103.393 24.041 103.967 23.3402 104.368 22.4145C104.795 21.4624 105.008 20.2855 105.008 18.8837C105.008 16.7679 104.555 15.1943 103.647 14.1628C102.739 13.1049 101.538 12.5759 100.043 12.5759C99.055 12.5759 98.1873 12.814 97.4398 13.29C96.6923 13.7396 96.105 14.4405 95.6778 15.3926C95.2774 16.3183 95.0771 17.482 95.0771 18.8837C95.0771 20.9731 95.531 22.56 96.4387 23.6443C97.3464 24.7022 98.5477 25.2312 100.043 25.2312Z" fill="#363636"/>
<path d="M117.607 28.881C116.806 28.881 116.192 28.643 115.765 28.1669C115.338 27.6908 115.124 27.0296 115.124 26.1833V11.6238C115.124 10.751 115.338 10.0898 115.765 9.64022C116.192 9.16416 116.806 8.92613 117.607 8.92613C118.408 8.92613 119.022 9.16416 119.449 9.64022C119.903 10.0898 120.13 10.751 120.13 11.6238V26.1833C120.13 27.0296 119.916 27.6908 119.489 28.1669C119.062 28.643 118.435 28.881 117.607 28.881ZM117.607 5.23666C116.673 5.23666 115.938 5.01185 115.405 4.56224C114.897 4.08618 114.644 3.43821 114.644 2.61833C114.644 1.772 114.897 1.12403 115.405 0.674417C115.938 0.224806 116.673 0 117.607 0C118.568 0 119.302 0.224806 119.81 0.674417C120.317 1.12403 120.57 1.772 120.57 2.61833C120.57 3.43821 120.317 4.08618 119.81 4.56224C119.302 5.01185 118.568 5.23666 117.607 5.23666Z" fill="#363636"/>
<path d="M127.814 28.9207C127.013 28.9207 126.399 28.7091 125.972 28.2859C125.545 27.8363 125.331 27.2016 125.331 26.3817V11.3858C125.331 10.5659 125.545 9.94437 125.972 9.5212C126.399 9.09804 127 8.88646 127.774 8.88646C128.548 8.88646 129.149 9.09804 129.576 9.5212C130.003 9.94437 130.217 10.5659 130.217 11.3858V14.0834L129.776 13.0917C130.363 11.6899 131.271 10.632 132.499 9.91792C133.754 9.17738 135.169 8.80711 136.744 8.80711C138.319 8.80711 139.614 9.09804 140.628 9.67989C141.643 10.2617 142.404 11.1477 142.911 12.3379C143.418 13.5016 143.672 14.9827 143.672 16.7811V26.3817C143.672 27.2016 143.458 27.8363 143.031 28.2859C142.604 28.7091 141.99 28.9207 141.189 28.9207C140.388 28.9207 139.761 28.7091 139.307 28.2859C138.88 27.8363 138.666 27.2016 138.666 26.3817V17.0192C138.666 15.5116 138.372 14.414 137.785 13.7264C137.225 13.0388 136.344 12.6949 135.142 12.6949C133.674 12.6949 132.499 13.1578 131.618 14.0834C130.764 14.9827 130.337 16.186 130.337 17.6936V26.3817C130.337 28.0743 129.496 28.9207 127.814 28.9207Z" fill="#363636"/>
<path d="M151.239 28.9207C150.438 28.9207 149.824 28.7091 149.397 28.2859C148.97 27.8363 148.756 27.2016 148.756 26.3817V2.81669C148.756 1.99681 148.97 1.37528 149.397 0.95212C149.824 0.528954 150.438 0.317372 151.239 0.317372C152.04 0.317372 152.654 0.528954 153.081 0.95212C153.535 1.37528 153.762 1.99681 153.762 2.81669V13.0917H153.201C153.788 11.6899 154.696 10.632 155.924 9.91792C157.179 9.17738 158.594 8.80711 160.169 8.80711C161.744 8.80711 163.039 9.09804 164.053 9.67989C165.068 10.2617 165.829 11.1477 166.336 12.3379C166.843 13.5016 167.097 14.9827 167.097 16.7811V26.3817C167.097 27.2016 166.883 27.8363 166.456 28.2859C166.029 28.7091 165.415 28.9207 164.614 28.9207C163.813 28.9207 163.186 28.7091 162.732 28.2859C162.305 27.8363 162.091 27.2016 162.091 26.3817V17.0192C162.091 15.5116 161.797 14.414 161.21 13.7264C160.649 13.0388 159.768 12.6949 158.567 12.6949C157.099 12.6949 155.924 13.1578 155.043 14.0834C154.189 14.9827 153.762 16.186 153.762 17.6936V26.3817C153.762 28.0743 152.921 28.9207 151.239 28.9207Z" fill="#363636"/>
<path d="M178.628 29C177.213 29 175.945 28.7355 174.824 28.2066C173.729 27.6512 172.862 26.9106 172.221 25.985C171.607 25.0593 171.3 24.0146 171.3 22.8509C171.3 21.4227 171.674 20.2987 172.421 19.4788C173.169 18.6325 174.383 18.0242 176.065 17.6539C177.747 17.2836 180.003 17.0985 182.833 17.0985H184.835V19.9549H182.873C181.218 19.9549 179.896 20.0342 178.909 20.1929C177.921 20.3516 177.213 20.6293 176.786 21.026C176.386 21.3963 176.186 21.9252 176.186 22.6129C176.186 23.4856 176.493 24.1997 177.107 24.7551C177.721 25.3105 178.575 25.5882 179.669 25.5882C180.55 25.5882 181.325 25.3899 181.992 24.9932C182.686 24.57 183.233 24.0014 183.634 23.2873C184.034 22.5732 184.235 21.7533 184.235 20.8276V16.2654C184.235 14.943 183.941 13.9909 183.354 13.409C182.766 12.8272 181.779 12.5363 180.39 12.5363C179.616 12.5363 178.775 12.6288 177.867 12.814C176.986 12.9991 176.052 13.3165 175.064 13.7661C174.557 14.0041 174.103 14.0702 173.703 13.9644C173.329 13.8586 173.035 13.6471 172.822 13.3297C172.608 12.9859 172.501 12.6156 172.501 12.2189C172.501 11.8222 172.608 11.4387 172.822 11.0684C173.035 10.6717 173.396 10.3808 173.903 10.1956C175.131 9.69311 176.306 9.33607 177.427 9.12449C178.575 8.9129 179.616 8.80711 180.55 8.80711C182.473 8.80711 184.048 9.09804 185.276 9.67989C186.531 10.2617 187.465 11.1477 188.079 12.3379C188.693 13.5016 189 15.0091 189 16.8605V26.3817C189 27.2016 188.8 27.8363 188.399 28.2859C187.999 28.7091 187.425 28.9207 186.677 28.9207C185.93 28.9207 185.343 28.7091 184.915 28.2859C184.515 27.8363 184.315 27.2016 184.315 26.3817V24.4774H184.635C184.448 25.4031 184.074 26.2098 183.514 26.8974C182.98 27.5586 182.299 28.0743 181.471 28.4446C180.644 28.8149 179.696 29 178.628 29Z" fill="#363636"/>
<path fill-rule="evenodd" clip-rule="evenodd" d="M14.5 25.8571C20.2201 25.8571 24.8571 21.2201 24.8571 15.5C24.8571 9.77991 20.2201 5.14286 14.5 5.14286C8.77991 5.14286 4.14286 9.77991 4.14286 15.5C4.14286 21.2201 8.77991 25.8571 14.5 25.8571ZM14.5 30C22.5081 30 29 23.5081 29 15.5C29 7.49187 22.5081 1 14.5 1C6.49187 1 0 7.49187 0 15.5C0 23.5081 6.49187 30 14.5 30Z" fill="#363636"/>
<path fill-rule="evenodd" clip-rule="evenodd" d="M15 17C16.72 17 17.625 15.8653 17.625 15C17.625 14.1347 16.72 13 15 13C13.28 13 12.375 14.1347 12.375 15C12.375 15.8653 13.28 17 15 17ZM15 21C18.866 21 22 18.3137 22 15C22 11.6863 18.866 9 15 9C11.134 9 8 11.6863 8 15C8 18.3137 11.134 21 15 21Z" fill="#363636"/>
</svg>
