<svg width="200" height="200" viewBox="0 0 200 200" fill="none" xmlns="http://www.w3.org/2000/svg">
<path fill-rule="evenodd" clip-rule="evenodd" d="M100 171.429C139.449 171.429 171.429 139.449 171.429 100C171.429 60.5511 139.449 28.5714 100 28.5714C60.5511 28.5714 28.5714 60.5511 28.5714 100C28.5714 139.449 60.5511 171.429 100 171.429ZM100 200C155.228 200 200 155.228 200 100C200 44.7715 155.228 0 100 0C44.7715 0 0 44.7715 0 100C0 155.228 44.7715 200 100 200Z" fill="#FFFFFF"/>
<path fill-rule="evenodd" clip-rule="evenodd" d="M103.5 110.333C115.417 110.333 121.688 102.485 121.688 96.5C121.688 90.5149 115.417 82.6667 103.5 82.6667C91.5828 82.6667 85.3125 90.5149 85.3125 96.5C85.3125 102.485 91.5828 110.333 103.5 110.333ZM103.5 138C130.286 138 152 119.42 152 96.5C152 73.5802 130.286 55 103.5 55C76.7142 55 55 73.5802 55 96.5C55 119.42 76.7142 138 103.5 138Z" fill="#FFFFFF"/>
</svg>
