<svg width="16" height="14" viewBox="0 0 16 14" fill="none" xmlns="http://www.w3.org/2000/svg">
<path d="M1.77778 1.75C0.797222 1.75 0 2.53477 0 3.5V10.5C0 11.4652 0.797222 12.25 1.77778 12.25H14.2222C15.2028 12.25 16 11.4652 16 10.5V3.5C16 2.53477 15.2028 1.75 14.2222 1.75H1.77778ZM3.55556 10.5H1.77778V8.75C2.75833 8.75 3.55556 9.53477 3.55556 10.5ZM1.77778 5.25V3.5H3.55556C3.55556 4.46523 2.75833 5.25 1.77778 5.25ZM12.4444 10.5C12.4444 9.53477 13.2417 8.75 14.2222 8.75V10.5H12.4444ZM14.2222 5.25C13.2417 5.25 12.4444 4.46523 12.4444 3.5H14.2222V5.25ZM8 4.375C8.70724 4.375 9.38552 4.65156 9.88562 5.14384C10.3857 5.63613 10.6667 6.30381 10.6667 7C10.6667 7.69619 10.3857 8.36387 9.88562 8.85616C9.38552 9.34844 8.70724 9.625 8 9.625C7.29276 9.625 6.61448 9.34844 6.11438 8.85616C5.61428 8.36387 5.33333 7.69619 5.33333 7C5.33333 6.30381 5.61428 5.63613 6.11438 5.14384C6.61448 4.65156 7.29276 4.375 8 4.375Z" fill="black"/>
</svg>
