<svg width="11" height="13" viewBox="0 0 11 13" fill="none" xmlns="http://www.w3.org/2000/svg">
<path d="M6.39994 0C2.86351 0 0 2.91049 0 6.5C0 10.0895 2.86351 13 6.39994 13C8.13522 13 9.70729 12.2978 10.8613 11.1603C11.0045 11.0181 11.0417 10.7975 10.95 10.6176C10.8584 10.4377 10.6608 10.3362 10.4633 10.371C10.1826 10.4203 9.89628 10.4464 9.60134 10.4464C6.8266 10.4464 4.57588 8.15982 4.57588 5.33929C4.57588 3.42991 5.60675 1.76719 7.13299 0.890848C7.30767 0.789286 7.39644 0.586161 7.35348 0.388839C7.31053 0.191518 7.14445 0.0435268 6.944 0.0261161C6.7636 0.0116072 6.5832 0.00290174 6.39994 0.00290174V0Z" fill="black"/>
</svg>
